<svg t="1736928517310" class="icon" viewBox="0 0 1024 1024" version="1.1" xmlns="http://www.w3.org/2000/svg" p-id="877"
     width="16" height="16">
    <path d="M1001.472 482.64533333C893.61066667 255.43111111 730.56711111 141.08444445 512 141.08444445c-218.68088889 0-381.61066667 114.34666667-489.472 341.67466666-8.76088889 18.432-8.76088889 40.04977778 0 58.59555556C130.38933333 768.56888889 293.43288889 882.91555555 512 882.91555555c218.68088889 0 381.61066667-114.34666667 489.472-341.67466666 8.76088889-18.432 8.76088889-39.82222222 0-58.59555556zM512 800.99555555c-183.52355555 0-317.89511111-93.07022222-412.672-288.99555555C194.10488889 316.07466667 328.47644445 223.00444445 512 223.00444445c183.52355555 0 317.89511111 93.07022222 412.672 288.99555555C830.00888889 707.92533333 695.63733333 800.99555555 512 800.99555555z"
          p-id="878" fill="#6C707E"></path>
    <path d="M507.73333333 324.26666667c-103.68 0-187.73333333 84.05333333-187.73333333 187.73333333s84.05333333 187.73333333 187.73333333 187.73333333 187.73333333-84.05333333 187.73333334-187.73333333-84.05333333-187.73333333-187.73333334-187.73333333z m0 307.2c-66.02666667 0-119.46666667-53.44-119.46666666-119.46666667s53.44-119.46666667 119.46666666-119.46666667 119.46666667 53.44 119.46666667 119.46666667-53.44 119.46666667-119.46666667 119.46666667z"
          p-id="879" fill="#6C707E"></path>
</svg>