<svg t="1741768073368" class="icon" viewBox="0 0 1024 1024" version="1.1" xmlns="http://www.w3.org/2000/svg" p-id="937" width="16" height="16"><path d="M827.68472747 367.27138987C739.32581547 286.94500693 631.30064213 238.93333333 512 238.93333333c-119.30064213 0-227.32581547 48.0116736-315.68472747 128.33805654-61.94899627 56.31726933-108.01861973 127.95904-109.06719573 144.18684586 0.14636373-2.27628373 1.15452587 0.78861653 3.71370667 6.14946134 4.87150933 10.19521707 12.5796352 22.98129067 22.55530666 37.06497706 23.34938453 32.964608 55.8792704 68.73524907 93.17471574 101.16573867C299.45582933 736.5033984 406.1233152 785.06666667 512 785.06666667c105.8766848 0 212.54526293-48.56436053 305.30819413-129.2271616 37.29544533-32.43158187 69.8253312-68.20222293 93.17471574-101.16573867 9.97567147-14.0836864 17.68379733-26.87085227 22.55530666-37.06606933 2.3658496-4.95561387 3.40568747-7.9495168 3.66455467-6.6879488-1.98464853-17.21521493-47.7298688-87.932928-109.01804373-143.6483584zM512 178.2513664c303.40765013 0 485.4513664 273.06666667 485.4513664 333.7486336C997.4513664 572.68196693 785.06666667 845.7486336 512 845.7486336c-273.06666667 0-485.4513664-273.06666667-485.4513664-333.7486336 0-60.68196693 182.04371627-333.7486336 485.4513664-333.7486336z m0 151.70491733c-100.53986987 0-182.04480853 81.5038464-182.04480853 182.04371627S411.46013013 694.04480853 512 694.04480853 694.04480853 612.53986987 694.04480853 512 612.53986987 329.95519147 512 329.95519147z m0 60.68087467c67.026944 0 121.3628416 54.3358976 121.3628416 121.3628416S579.026944 633.3628416 512 633.3628416 390.6371584 579.026944 390.6371584 512 444.973056 390.6371584 512 390.6371584z" fill="#CED0D6" p-id="938"></path></svg>