<svg t="1736928586708" class="icon" viewBox="0 0 1024 1024" version="1.1" xmlns="http://www.w3.org/2000/svg" p-id="907" width="16" height="16"><path d="M1001.58577778 482.87288889l-0.11377778-0.11377778-0.11377778-0.11377778c-41.41511111-87.26755555-91.02222222-157.80977778-148.70755555-211.62666666L794.96533333 328.81777778c49.72088889 45.73866667 92.72888889 106.60977778 129.82044445 183.06844444C830.00888889 707.92533333 695.63733333 800.99555555 512 800.99555555c-58.368 0-111.84355555-9.44355555-160.65422222-28.55822222l-62.23644445 62.23644445C355.66933333 866.75911111 429.85244445 882.91555555 512 882.91555555c218.68088889 0 381.61066667-114.34666667 489.472-341.67466666 8.76088889-18.432 8.76088889-39.82222222 0.11377778-58.368zM928.768 104.90311111l-48.24177778-48.24177778c-3.52711111-3.52711111-9.32977778-3.52711111-12.85688889 0L734.77688889 189.44C668.33066667 157.24088889 594.14755555 141.08444445 512 141.08444445c-218.68088889 0-381.61066667 114.34666667-489.472 341.67466666v0.11377778c-8.76088889 18.432-8.76088889 40.04977778 0 58.59555556 41.41511111 87.26755555 91.02222222 157.80977778 148.70755555 211.74044444L56.66133333 867.55555555c-3.52711111 3.52711111-3.52711111 9.32977778 0 12.8568889l48.24177778 48.24177777c3.52711111 3.52711111 9.32977778 3.52711111 12.85688889 0l811.008-811.008c3.52711111-3.41333333 3.52711111-9.216 0-12.74311111zM383.31733333 540.89955555c-2.16177778-9.32977778-3.29955555-19.00088889-3.29955555-28.89955555 0-70.42844445 57.00266667-127.43111111 127.43111111-127.43111111 9.89866667 0 19.68355555 1.13777778 28.89955556 3.29955556L383.31733333 540.89955555z m209.92-209.92C567.18222222 318.69155555 538.16888889 311.75111111 507.44888889 311.75111111c-110.592 0-200.24888889 89.65688889-200.24888889 200.24888889 0 30.72 6.94044445 59.73333333 19.22844445 85.78844445L229.03466667 695.18222222c-49.72088889-45.73866667-92.72888889-106.60977778-129.82044445-183.06844444C194.10488889 316.07466667 328.47644445 223.00444445 512 223.00444445c58.368 0 111.84355555 9.44355555 160.65422222 28.55822222l-79.41688889 79.41688888z" p-id="908" fill="#CED0D6"></path><path d="M507.44888889 639.43111111c-7.28177778 0-14.44977778-0.56888889-21.39022222-1.82044444l-58.14044445 58.14044444c24.34844445 10.58133333 51.31377778 16.384 79.53066667 16.384 110.592 0 200.24888889-89.65688889 200.24888889-200.24888889 0-28.21688889-5.80266667-55.18222222-16.384-79.53066667l-58.14044445 58.14044445c1.13777778 6.94044445 1.82044445 14.10844445 1.82044445 21.39022222C634.88 582.42844445 577.87733333 639.43111111 507.44888889 639.43111111z" p-id="909" fill="#CED0D6"></path></svg>