<svg t="1741768152921" class="icon" viewBox="0 0 1024 1024" version="1.1" xmlns="http://www.w3.org/2000/svg" p-id="967" width="16" height="16"><path d="M105.44960853 295.50400853c63.52186027 67.96957013 151.54435413 121.14766507 237.95575467 151.0998016 217.83947947 75.49528747 427.50989653-0.5636096 595.92103253-151.0998016 31.735808-28.3639808 78.39197867 18.91150507 46.44645547 47.4546176-21.81911893 19.50569813-44.4366848 38.00978773-67.76203947 55.32002987 19.57997227 38.486016 39.15011413 76.95018667 58.73117867 115.41435733 19.5231744 38.3582208-37.18075733 72.29494613-56.737792 33.8690048-21.200896-41.7202176-42.4378368-83.37926827-63.64747093-125.06453333l6.82011306 13.39774293c-38.91090773 24.559616-79.4427392 45.70262187-121.21757013 62.652416l47.50923093 123.80187307c15.33323947 39.94965333-46.81127253 57.3014016-62.87305386 19.0185472l-0.47295147-1.17746347-46.03904-119.94944853c-43.4372608 12.84396373-87.96132693 21.0010112-133.1789824 23.66614187l-4.88133973 0.26651306 0.04150613 0.81046187c0.01092267 0.2752512 0.0196608 0.55268693 0.02512213 0.83012267l0.00873814 0.84322986v140.9286144c0 42.8474368-64.38693547 43.27560533-65.67471787 1.28559787l-0.0196608-1.28559787V546.65762133c0-1.06605227 0.0393216-2.10589013 0.11687253-3.1195136-44.0205312-3.0736384-88.49872213-11.6064256-133.08177066-26.30396586-1.03000747-0.33860267-2.0611072-0.6815744-3.09111467-1.02673067l-50.15688533 130.70936747c-15.12461653 39.41771947-77.5585792 22.84148053-63.78728107-16.6395904l0.44127573-1.20367787 50.348032-131.20088747a39.14902187 39.14902187 0 0 1 2.27191467-4.9020928c-38.50130773-16.56203947-76.3199488-36.52539733-111.85902933-59.76337066-25.75346347 34.10384213-51.50365013 68.21205333-77.2603904 102.2984192-10.911744 14.47253333-27.99479467 22.18612053-44.93585067 12.04770133-13.82700373-8.27938133-22.577152-30.93408427-12.10886827-45.46996907l0.32331094-0.43690666 80.89217706-107.10439254c-19.7525504-16.03556693-38.37678933-33.23876693-55.5220992-51.5833856-29.2388864-31.28251733 17.14858667-78.80485547 46.4551936-47.4546176z m436.57352534 248.659968v0.0098304-0.01092266z" fill="#CED0D6" p-id="968"></path></svg>