<svg t="1740039296619" class="icon" viewBox="0 0 1024 1024" version="1.1" xmlns="http://www.w3.org/2000/svg" p-id="9516"
     width="16" height="16">
    <path d="M381.781333 375.381333v-61.013333a285.866667 285.866667 0 0 1 18.090667-0.768c167.338667-5.290667 277.034667 143.957333 277.034667 143.957333s-118.357333 164.309333-245.333334 164.309334a156.586667 156.586667 0 0 1-49.408-7.893334v-185.429333c65.194667 7.893333 78.378667 36.565333 117.205334 101.76l87.04-73.130667s-63.658667-83.285333-170.666667-83.285333a256.682667 256.682667 0 0 0-33.962667 1.493333m0-202.026666v91.221333l18.090667-1.152c232.533333-7.893333 384.426667 190.72 384.426667 190.72s-174.08 211.797333-355.413334 211.797333a275.626667 275.626667 0 0 1-46.72-4.138666v56.533333c12.8 1.493333 26.026667 2.645333 38.826667 2.645333 168.832 0 290.986667-86.314667 409.301333-188.074666 19.584 15.829333 99.84 53.888 116.48 70.485333-112.341333 94.208-374.272 169.984-522.794666 169.984-14.293333 0-27.861333-0.768-41.429334-2.261333v79.530666H1024V173.354667z m0 440.576v48.256c-156.032-27.904-199.381333-190.293333-199.381333-190.293334s75.008-82.944 199.381333-96.512v52.778667H381.44c-65.194667-7.936-116.48 53.12-116.48 53.12s29.013333 102.912 116.864 132.693333M104.789333 465.066667s92.330667-136.405333 277.333334-150.741334V264.576C177.194667 281.173333 0 454.528 0 454.528s100.266667 290.218667 381.781333 316.586667v-52.778667c-206.506667-25.6-276.992-253.269333-276.992-253.269333z"
          p-id="9517" fill="#CED0D6"></path>
</svg>